<svg width="33" height="33" viewBox="0 0 33 33" fill="none" xmlns="http://www.w3.org/2000/svg">
<path d="M16.5 0.343994C7.57709 0.343994 0.343994 7.57709 0.343994 16.5C0.343994 25.4229 7.57709 32.656 16.5 32.656C25.4229 32.656 32.656 25.4229 32.656 16.5C32.656 7.57709 25.4229 0.343994 16.5 0.343994ZM25.1828 22.6309C24.4933 23.0621 21.6915 23.1906 21.0132 22.6978C20.6412 22.4276 20.301 22.0895 19.9779 21.7675C19.7518 21.5424 19.4953 21.4332 19.301 21.1889C19.1425 20.9891 19.0336 20.7532 18.8667 20.5558C18.5849 20.2247 18.1513 19.9429 17.8083 20.3475C17.2917 20.9562 17.8895 22.1514 17.2007 22.6061C16.9697 22.7587 16.7366 22.8028 16.4478 22.7811L15.8084 22.8101C15.4328 22.8175 14.8378 22.821 14.4105 22.744C13.9338 22.6579 13.54 22.3975 13.1088 22.2064C12.2905 21.8434 11.5111 21.3489 10.9178 20.6639C9.30329 18.7984 7.13469 16.2329 6.29224 13.8876C6.11899 13.4056 5.66119 12.4512 6.09519 12.0378C6.68529 11.6091 9.58154 11.4883 10.0334 12.1512C10.2168 12.4207 10.3326 12.8148 10.4625 13.1204C10.6242 13.5012 10.7117 13.8599 10.9644 14.197C11.188 14.4959 11.3529 14.7965 11.5258 15.1241C11.72 15.492 11.9034 15.8448 12.1397 16.1832C12.3 16.4135 12.7238 16.8717 12.9916 16.9056C13.6454 16.9893 13.6048 15.4006 13.5561 15.0128C13.5096 14.639 13.4977 14.2425 13.5099 13.8634C13.5204 13.54 13.5495 13.0843 13.358 12.8204C13.0458 12.3899 12.3504 12.7119 12.2961 12.1334C12.4109 11.9692 12.3868 11.8236 13.1536 11.5709C13.7577 11.3725 14.148 11.3788 14.5463 11.4106C15.3583 11.4757 16.2193 11.2559 17.0033 11.5191C17.7523 11.7715 17.6364 12.8358 17.6112 13.4735C17.5773 14.344 17.6137 15.1938 17.6112 16.0775C17.6102 16.4797 17.5941 16.8713 18.0848 16.8384C18.5447 16.808 18.5916 16.4209 18.811 16.1017C19.1162 15.6565 19.3966 15.205 19.7074 14.7615C20.1263 14.162 20.253 13.4882 20.6475 12.874C20.7885 12.6545 20.91 12.1869 21.1273 12.0133C21.2918 11.8814 21.6044 11.9503 21.8035 11.9503H22.2771C22.6393 11.9503 23.0089 11.9475 23.3813 11.9605C23.9175 11.979 24.5181 11.8558 25.0498 11.9311C27.344 12.2548 22.1661 17.1594 22.4356 18.0351C22.6218 18.6399 23.8031 19.3157 24.2294 19.811C24.7953 20.4707 26.5376 21.7822 25.1828 22.6309Z" fill="white"/>
</svg>
