<svg width="21" height="21" viewBox="0 0 21 21" fill="none" xmlns="http://www.w3.org/2000/svg">
<path d="M3.5437 17.7188L4.75776 12.8297L12.2062 5.38129L15.8812 9.05629L8.43276 16.5047L3.5437 17.7188ZM5.61089 13.2891L4.82339 16.4391L7.97339 15.6516L14.6015 9.02348L12.239 6.66097L5.61089 13.2891Z" fill="white"/>
<path d="M7.64529 16.2094C7.31717 14.9297 6.33279 13.9454 5.0531 13.6172L5.28279 12.6985C6.8906 13.0922 8.13748 14.3391 8.53123 15.9469L7.64529 16.2094Z" fill="white"/>
<path d="M7.54687 14.4047L6.89062 13.7156L13.4203 7.18591L14.0766 7.84216L7.54687 14.4047Z" fill="white"/>
<path d="M4.19995 17.0625L5.6437 16.7016C5.51245 16.1766 5.08589 15.75 4.56089 15.6188L4.19995 17.0625Z" fill="white"/>
<path d="M16.2421 8.69533L12.5671 5.02032L14.0437 3.54376L14.2734 3.57658C16.0453 3.80626 17.4562 5.2172 17.6859 6.98907L17.7187 7.21877L16.2421 8.69533ZM13.9124 5.02032L16.275 7.38283L16.7343 6.92346C16.4718 5.74221 15.5531 4.82345 14.3718 4.56095L13.9124 5.02032Z" fill="white"/>
</svg>
