<svg xmlns="http://www.w3.org/2000/svg" xmlns:xlink="http://www.w3.org/1999/xlink"><symbol id="info" viewBox="0 0 15 15">
<style type="text/css">
	.st0{fill:#FFFFFF;}
	.st1{fill:none;stroke:#FFFFFF;}
</style>
<path class="st0" d="M8.5,10.3l-0.1,0.4C8.1,10.9,7.8,11,7.6,11c-0.2,0.1-0.4,0.1-0.7,0.1c-0.4,0-0.7-0.1-0.9-0.3
	c-0.2-0.2-0.3-0.4-0.3-0.7c0-0.1,0-0.2,0-0.3c0-0.1,0-0.3,0.1-0.4l0.4-1.4c0-0.1,0.1-0.3,0.1-0.4c0-0.1,0-0.2,0-0.3
	c0-0.2,0-0.3-0.1-0.4C6.1,6.8,6,6.7,5.8,6.7c-0.1,0-0.2,0-0.3,0c-0.1,0-0.2,0.1-0.3,0.1l0.1-0.4C5.6,6.3,5.8,6.2,6,6.2
	C6.3,6.1,6.5,6,6.7,6c0.4,0,0.7,0.1,0.9,0.3c0.2,0.2,0.3,0.4,0.3,0.7c0,0.1,0,0.2,0,0.3c0,0.2,0,0.3-0.1,0.4L7.4,9.2
	c0,0.1-0.1,0.2-0.1,0.4c0,0.1,0,0.3,0,0.3c0,0.2,0,0.3,0.1,0.4c0.1,0.1,0.2,0.1,0.4,0.1c0.1,0,0.2,0,0.3,0
	C8.3,10.4,8.4,10.3,8.5,10.3z M8.6,4.3c0,0.2-0.1,0.5-0.3,0.6C8.1,5.1,7.9,5.2,7.6,5.2C7.4,5.2,7.1,5.1,6.9,5
	C6.8,4.8,6.7,4.6,6.7,4.3c0-0.2,0.1-0.5,0.3-0.6c0.2-0.2,0.4-0.3,0.7-0.3c0.3,0,0.5,0.1,0.7,0.3C8.5,3.9,8.6,4.1,8.6,4.3z"/>
<path class="st1" d="M7.5,0.5c-3.9,0-7,3.1-7,7s3.1,7,7,7s7-3.1,7-7S11.4,0.5,7.5,0.5z M7.5,14C3.9,14,1,11.1,1,7.5S3.9,1,7.5,1
	S14,3.9,14,7.5S11.1,14,7.5,14z"/>
</symbol><symbol id="lock" viewBox="0 0 18 18">
<path d="M16.875 9.28125H15.1875V7.3125C15.1875 7.16332 15.1282 7.02024 15.0227 6.91475C14.9173 6.80926 14.7742 6.75 14.625 6.75H5.34375V5.34375C5.34375 4.37405 5.72896 3.44407 6.41464 2.75839C7.10032 2.07271 8.0303 1.6875 9 1.6875C9.9697 1.6875 10.8997 2.07271 11.5854 2.75839C12.271 3.44407 12.6562 4.37405 12.6562 5.34375H13.7812C13.7812 4.07568 13.2775 2.85955 12.3809 1.9629C11.4842 1.06624 10.2681 0.5625 9 0.5625C7.73193 0.5625 6.5158 1.06624 5.61915 1.9629C4.72249 2.85955 4.21875 4.07568 4.21875 5.34375V6.75H3.375C3.22582 6.75 3.08274 6.80926 2.97725 6.91475C2.87176 7.02024 2.8125 7.16332 2.8125 7.3125V9.28125H1.125C0.975816 9.28125 0.832742 9.34051 0.727252 9.446C0.621763 9.55149 0.5625 9.69457 0.5625 9.84375V14.3438C0.5625 14.4929 0.621763 14.636 0.727252 14.7415C0.832742 14.847 0.975816 14.9062 1.125 14.9062H2.8125V16.875C2.8125 17.0242 2.87176 17.1673 2.97725 17.2727C3.08274 17.3782 3.22582 17.4375 3.375 17.4375H14.625C14.7742 17.4375 14.9173 17.3782 15.0227 17.2727C15.1282 17.1673 15.1875 17.0242 15.1875 16.875V14.9062H16.875C17.0242 14.9062 17.1673 14.847 17.2727 14.7415C17.3782 14.636 17.4375 14.4929 17.4375 14.3438V9.84375C17.4375 9.69457 17.3782 9.55149 17.2727 9.446C17.1673 9.34051 17.0242 9.28125 16.875 9.28125ZM3.9375 7.875H14.0625V9.28125H3.9375V7.875ZM14.0625 16.3125H3.9375V14.9062H14.0625V16.3125ZM16.3125 13.7812H1.6875V10.4062H16.3125V13.7812Z" fill="white"/>
<path d="M3.9375 11.5312H2.8125V12.6562H3.9375V11.5312Z" fill="white"/>
<path d="M6.1875 11.5312H5.0625V12.6562H6.1875V11.5312Z" fill="white"/>
<path d="M8.4375 11.5312H7.3125V12.6562H8.4375V11.5312Z" fill="white"/>
<path d="M10.6875 11.5312H9.5625V12.6562H10.6875V11.5312Z" fill="white"/>
<path d="M12.9375 11.5312H11.8125V12.6562H12.9375V11.5312Z" fill="white"/>
<path d="M15.1875 11.5312H14.0625V12.6562H15.1875V11.5312Z" fill="white"/>
</symbol><symbol id="loupe" viewBox="0 0 18 18">
<style type="text/css">
	.st0{fill:#FFFFFF;}
</style>
<g>
	<path class="st0" d="M12.6,9.6l4.8,4.8c0.7,0.7,0.7,1.9,0,2.6l0,0c-0.7,0.7-1.9,0.7-2.6,0L10,12.2c-0.7-0.7-0.7-1.9,0-2.6l0,0
		C10.7,8.9,11.9,8.9,12.6,9.6z"/>
	<path class="st0" d="M5.9,0.5C2.7,0.5,0,3.1,0,6.3s2.6,5.9,5.9,5.9s5.9-2.6,5.9-5.9S9.1,0.5,5.9,0.5z M9.5,9.9c-2,2-5.2,2-7.2,0
		c-2-2-2-5.2,0-7.2s5.2-2,7.2,0C11.5,4.7,11.5,7.9,9.5,9.9z"/>
</g>
</symbol><symbol id="message" viewBox="0 0 22 21">
<path d="M21.0435 0H0.956522C0.430435 0 0 0.4725 0 1.05V14.4637C0 15.0412 0.430435 15.4875 0.956522 15.4875H12.1957V19.95C12.1957 20.3962 12.5065 20.79 12.8652 20.9475C12.9848 21 13.1044 21 13.2239 21C13.5109 21 13.7739 20.8687 13.9652 20.6325L17.9348 15.4875H21.0435C21.5696 15.4875 22 15.0412 22 14.4637V1.05C22 0.4725 21.5696 0 21.0435 0Z" fill="white"/>
</symbol><symbol id="notification" viewBox="0 0 17 22">
<path d="M8.5 22C9.06359 22 9.60409 21.7623 10.0026 21.3391C10.4011 20.916 10.625 20.342 10.625 19.7436H6.375C6.375 20.342 6.59888 20.916 6.9974 21.3391C7.39591 21.7623 7.93641 22 8.5 22ZM14.875 15.2308V9.58974C14.875 6.12615 13.1325 3.22667 10.0938 2.45949V1.69231C10.0938 1.24348 9.92584 0.813035 9.62695 0.495666C9.32807 0.178296 8.92269 0 8.5 0C8.07731 0 7.67193 0.178296 7.37305 0.495666C7.07416 0.813035 6.90625 1.24348 6.90625 1.69231V2.45949C3.85688 3.22667 2.125 6.11487 2.125 9.58974V15.2308L0 17.4872V18.6154H17V17.4872L14.875 15.2308Z" fill="white"/>
</symbol><symbol id="pencil" viewBox="0 0 21 21">
<path d="M3.5437 17.7188L4.75776 12.8297L12.2062 5.38129L15.8812 9.05629L8.43276 16.5047L3.5437 17.7188ZM5.61089 13.2891L4.82339 16.4391L7.97339 15.6516L14.6015 9.02348L12.239 6.66097L5.61089 13.2891Z" fill="white"/>
<path d="M7.64529 16.2094C7.31717 14.9297 6.33279 13.9454 5.0531 13.6172L5.28279 12.6985C6.8906 13.0922 8.13748 14.3391 8.53123 15.9469L7.64529 16.2094Z" fill="white"/>
<path d="M7.54687 14.4047L6.89062 13.7156L13.4203 7.18591L14.0766 7.84216L7.54687 14.4047Z" fill="white"/>
<path d="M4.19995 17.0625L5.6437 16.7016C5.51245 16.1766 5.08589 15.75 4.56089 15.6188L4.19995 17.0625Z" fill="white"/>
<path d="M16.2421 8.69533L12.5671 5.02032L14.0437 3.54376L14.2734 3.57658C16.0453 3.80626 17.4562 5.2172 17.6859 6.98907L17.7187 7.21877L16.2421 8.69533ZM13.9124 5.02032L16.275 7.38283L16.7343 6.92346C16.4718 5.74221 15.5531 4.82345 14.3718 4.56095L13.9124 5.02032Z" fill="white"/>
</symbol><symbol id="star" viewBox="0 0 26 24">
<path d="M12.5245 1.08156C12.6741 0.620903 13.3259 0.620905 13.4755 1.08156L15.6677 7.82827C15.8685 8.4463 16.4444 8.86475 17.0943 8.86475H24.1882C24.6725 8.86475 24.8739 9.48455 24.4821 9.76925L18.743 13.9389C18.2172 14.3209 17.9972 14.998 18.1981 15.616L20.3902 22.3627C20.5399 22.8234 20.0126 23.2064 19.6208 22.9217L13.8817 18.752C13.3559 18.3701 12.6441 18.3701 12.1183 18.752L6.37923 22.9217C5.98737 23.2064 5.46013 22.8234 5.60981 22.3627L7.80195 15.616C8.00276 14.998 7.78277 14.3209 7.25704 13.9389L1.51794 9.76925C1.12609 9.48455 1.32747 8.86475 1.81184 8.86475H8.90575C9.55558 8.86475 10.1315 8.44631 10.3323 7.82827L12.5245 1.08156Z" fill="white" stroke="white"/>
</symbol></svg>