<svg xmlns="http://www.w3.org/2000/svg" xmlns:xlink="http://www.w3.org/1999/xlink"><symbol id="icon_facebook" viewBox="0 0 33 33">
<path d="M16.5 0.343994C7.57709 0.343994 0.343994 7.57709 0.343994 16.5C0.343994 25.4229 7.57709 32.656 16.5 32.656C25.4229 32.656 32.656 25.4229 32.656 16.5C32.656 7.57709 25.4229 0.343994 16.5 0.343994ZM21.7979 17.4002C21.149 17.3893 20.5558 17.4082 19.8015 17.3757C19.679 17.3701 17.7145 17.3995 17.7204 17.4352C17.8632 18.3088 17.6581 19.237 17.6704 20.1204C17.6777 20.6352 17.8289 25.293 17.7593 27.0112L13.8662 27.0469C13.8501 25.5839 13.9215 24.0792 13.8582 22.1497C13.8452 21.7531 13.8323 17.5783 13.7861 17.3585C13.7861 17.3585 12.0655 17.3708 11.2612 17.3757C11.2612 17.3757 11.2503 15.835 11.2503 15.3138C11.2503 14.8018 11.2503 14.2904 11.2503 13.7784C11.2503 13.7784 13.2586 13.6671 13.8351 13.617C13.8351 13.617 13.8939 11.6626 13.9737 11.0295C14.0657 10.3064 14.0748 9.57559 14.4994 8.93579C15.2774 7.76469 16.0453 6.73254 17.4758 6.42139C18.0169 6.30309 21.5851 5.60169 21.7174 6.17884L21.6362 9.65364C20.666 9.65364 19.5033 9.55529 18.5132 10.2906C17.9619 10.7008 17.8097 11.0424 17.754 11.7172C17.7208 12.1096 17.7131 13.6975 17.7131 13.6975C18.236 13.7721 19.0098 13.7392 19.5719 13.6975C20.2068 13.6503 21.8368 13.8186 21.8368 13.8186C21.8361 14.8697 21.7941 17.2962 21.7979 17.4002Z" fill="white"/>
</symbol><symbol id="icon_insta" viewBox="0 0 31 31">
<path d="M15.5 0.886108C7.21791 0.886108 0.51001 7.60275 0.51001 15.8761C0.51001 24.1495 7.22665 30.8661 15.5 30.8661C23.7734 30.8661 30.49 24.1495 30.49 15.8761C30.49 7.60275 23.7821 0.886108 15.5 0.886108ZM24.2281 20.555C24.2281 22.7939 22.4091 24.613 20.1702 24.613H10.8298C8.59097 24.613 6.77188 22.7939 6.77188 20.555V11.2147C6.77188 8.97581 8.59097 7.15672 10.8298 7.15672H20.1702C22.4091 7.15672 24.2281 8.97581 24.2281 11.2147V20.555Z" fill="white"/>
<path d="M20.1702 8.46863H10.8299C9.31687 8.46863 8.08374 9.70176 8.08374 11.2148V20.5551C8.08374 22.0681 9.31687 23.3012 10.8299 23.3012H20.1702C21.6832 23.3012 22.9163 22.0681 22.9163 20.5551V11.2148C22.9163 9.70176 21.6832 8.46863 20.1702 8.46863ZM15.5 20.7212C12.8326 20.7212 10.6637 18.5523 10.6637 15.8849C10.6637 13.2175 12.8326 11.0486 15.5 11.0486C18.1674 11.0486 20.3364 13.2175 20.3364 15.8849C20.3364 18.5523 18.1674 20.7212 15.5 20.7212ZM20.5025 12.3517C19.6892 12.3517 19.0333 11.6958 19.0333 10.8824C19.0333 10.0691 19.6892 9.41316 20.5025 9.41316C21.3159 9.41316 21.9718 10.0691 21.9718 10.8824C21.9718 11.687 21.3071 12.3517 20.5025 12.3517Z" fill="white"/>
<path d="M15.5 19.4182C17.4514 19.4182 19.0333 17.8363 19.0333 15.8849C19.0333 13.9336 17.4514 12.3517 15.5 12.3517C13.5487 12.3517 11.9668 13.9336 11.9668 15.8849C11.9668 17.8363 13.5487 19.4182 15.5 19.4182Z" fill="white"/>
</symbol><symbol id="icon_vk" viewBox="0 0 33 33">
<path d="M16.5 0.343994C7.57709 0.343994 0.343994 7.57709 0.343994 16.5C0.343994 25.4229 7.57709 32.656 16.5 32.656C25.4229 32.656 32.656 25.4229 32.656 16.5C32.656 7.57709 25.4229 0.343994 16.5 0.343994ZM25.1828 22.6309C24.4933 23.0621 21.6915 23.1906 21.0132 22.6978C20.6412 22.4276 20.301 22.0895 19.9779 21.7675C19.7518 21.5424 19.4953 21.4332 19.301 21.1889C19.1425 20.9891 19.0336 20.7532 18.8667 20.5558C18.5849 20.2247 18.1513 19.9429 17.8083 20.3475C17.2917 20.9562 17.8895 22.1514 17.2007 22.6061C16.9697 22.7587 16.7366 22.8028 16.4478 22.7811L15.8084 22.8101C15.4328 22.8175 14.8378 22.821 14.4105 22.744C13.9338 22.6579 13.54 22.3975 13.1088 22.2064C12.2905 21.8434 11.5111 21.3489 10.9178 20.6639C9.30329 18.7984 7.13469 16.2329 6.29224 13.8876C6.11899 13.4056 5.66119 12.4512 6.09519 12.0378C6.68529 11.6091 9.58154 11.4883 10.0334 12.1512C10.2168 12.4207 10.3326 12.8148 10.4625 13.1204C10.6242 13.5012 10.7117 13.8599 10.9644 14.197C11.188 14.4959 11.3529 14.7965 11.5258 15.1241C11.72 15.492 11.9034 15.8448 12.1397 16.1832C12.3 16.4135 12.7238 16.8717 12.9916 16.9056C13.6454 16.9893 13.6048 15.4006 13.5561 15.0128C13.5096 14.639 13.4977 14.2425 13.5099 13.8634C13.5204 13.54 13.5495 13.0843 13.358 12.8204C13.0458 12.3899 12.3504 12.7119 12.2961 12.1334C12.4109 11.9692 12.3868 11.8236 13.1536 11.5709C13.7577 11.3725 14.148 11.3788 14.5463 11.4106C15.3583 11.4757 16.2193 11.2559 17.0033 11.5191C17.7523 11.7715 17.6364 12.8358 17.6112 13.4735C17.5773 14.344 17.6137 15.1938 17.6112 16.0775C17.6102 16.4797 17.5941 16.8713 18.0848 16.8384C18.5447 16.808 18.5916 16.4209 18.811 16.1017C19.1162 15.6565 19.3966 15.205 19.7074 14.7615C20.1263 14.162 20.253 13.4882 20.6475 12.874C20.7885 12.6545 20.91 12.1869 21.1273 12.0133C21.2918 11.8814 21.6044 11.9503 21.8035 11.9503H22.2771C22.6393 11.9503 23.0089 11.9475 23.3813 11.9605C23.9175 11.979 24.5181 11.8558 25.0498 11.9311C27.344 12.2548 22.1661 17.1594 22.4356 18.0351C22.6218 18.6399 23.8031 19.3157 24.2294 19.811C24.7953 20.4707 26.5376 21.7822 25.1828 22.6309Z" fill="white"/>
</symbol><symbol id="info" viewBox="0 0 15 15">
<style type="text/css">
	.st0{fill:#FFFFFF;}
	.st1{fill:none;stroke:#FFFFFF;}
</style>
<path class="st0" d="M8.5,10.3l-0.1,0.4C8.1,10.9,7.8,11,7.6,11c-0.2,0.1-0.4,0.1-0.7,0.1c-0.4,0-0.7-0.1-0.9-0.3
	c-0.2-0.2-0.3-0.4-0.3-0.7c0-0.1,0-0.2,0-0.3c0-0.1,0-0.3,0.1-0.4l0.4-1.4c0-0.1,0.1-0.3,0.1-0.4c0-0.1,0-0.2,0-0.3
	c0-0.2,0-0.3-0.1-0.4C6.1,6.8,6,6.7,5.8,6.7c-0.1,0-0.2,0-0.3,0c-0.1,0-0.2,0.1-0.3,0.1l0.1-0.4C5.6,6.3,5.8,6.2,6,6.2
	C6.3,6.1,6.5,6,6.7,6c0.4,0,0.7,0.1,0.9,0.3c0.2,0.2,0.3,0.4,0.3,0.7c0,0.1,0,0.2,0,0.3c0,0.2,0,0.3-0.1,0.4L7.4,9.2
	c0,0.1-0.1,0.2-0.1,0.4c0,0.1,0,0.3,0,0.3c0,0.2,0,0.3,0.1,0.4c0.1,0.1,0.2,0.1,0.4,0.1c0.1,0,0.2,0,0.3,0
	C8.3,10.4,8.4,10.3,8.5,10.3z M8.6,4.3c0,0.2-0.1,0.5-0.3,0.6C8.1,5.1,7.9,5.2,7.6,5.2C7.4,5.2,7.1,5.1,6.9,5
	C6.8,4.8,6.7,4.6,6.7,4.3c0-0.2,0.1-0.5,0.3-0.6c0.2-0.2,0.4-0.3,0.7-0.3c0.3,0,0.5,0.1,0.7,0.3C8.5,3.9,8.6,4.1,8.6,4.3z"/>
<path class="st1" d="M7.5,0.5c-3.9,0-7,3.1-7,7s3.1,7,7,7s7-3.1,7-7S11.4,0.5,7.5,0.5z M7.5,14C3.9,14,1,11.1,1,7.5S3.9,1,7.5,1
	S14,3.9,14,7.5S11.1,14,7.5,14z"/>
</symbol><symbol id="lock" viewBox="0 0 18 18">
<path d="M16.875 9.28125H15.1875V7.3125C15.1875 7.16332 15.1282 7.02024 15.0227 6.91475C14.9173 6.80926 14.7742 6.75 14.625 6.75H5.34375V5.34375C5.34375 4.37405 5.72896 3.44407 6.41464 2.75839C7.10032 2.07271 8.0303 1.6875 9 1.6875C9.9697 1.6875 10.8997 2.07271 11.5854 2.75839C12.271 3.44407 12.6562 4.37405 12.6562 5.34375H13.7812C13.7812 4.07568 13.2775 2.85955 12.3809 1.9629C11.4842 1.06624 10.2681 0.5625 9 0.5625C7.73193 0.5625 6.5158 1.06624 5.61915 1.9629C4.72249 2.85955 4.21875 4.07568 4.21875 5.34375V6.75H3.375C3.22582 6.75 3.08274 6.80926 2.97725 6.91475C2.87176 7.02024 2.8125 7.16332 2.8125 7.3125V9.28125H1.125C0.975816 9.28125 0.832742 9.34051 0.727252 9.446C0.621763 9.55149 0.5625 9.69457 0.5625 9.84375V14.3438C0.5625 14.4929 0.621763 14.636 0.727252 14.7415C0.832742 14.847 0.975816 14.9062 1.125 14.9062H2.8125V16.875C2.8125 17.0242 2.87176 17.1673 2.97725 17.2727C3.08274 17.3782 3.22582 17.4375 3.375 17.4375H14.625C14.7742 17.4375 14.9173 17.3782 15.0227 17.2727C15.1282 17.1673 15.1875 17.0242 15.1875 16.875V14.9062H16.875C17.0242 14.9062 17.1673 14.847 17.2727 14.7415C17.3782 14.636 17.4375 14.4929 17.4375 14.3438V9.84375C17.4375 9.69457 17.3782 9.55149 17.2727 9.446C17.1673 9.34051 17.0242 9.28125 16.875 9.28125ZM3.9375 7.875H14.0625V9.28125H3.9375V7.875ZM14.0625 16.3125H3.9375V14.9062H14.0625V16.3125ZM16.3125 13.7812H1.6875V10.4062H16.3125V13.7812Z" fill="white"/>
<path d="M3.9375 11.5312H2.8125V12.6562H3.9375V11.5312Z" fill="white"/>
<path d="M6.1875 11.5312H5.0625V12.6562H6.1875V11.5312Z" fill="white"/>
<path d="M8.4375 11.5312H7.3125V12.6562H8.4375V11.5312Z" fill="white"/>
<path d="M10.6875 11.5312H9.5625V12.6562H10.6875V11.5312Z" fill="white"/>
<path d="M12.9375 11.5312H11.8125V12.6562H12.9375V11.5312Z" fill="white"/>
<path d="M15.1875 11.5312H14.0625V12.6562H15.1875V11.5312Z" fill="white"/>
</symbol><symbol id="loupe" viewBox="0 0 18 18">
<style type="text/css">
	.st0{fill:#FFFFFF;}
</style>
<g>
	<path class="st0" d="M12.6,9.6l4.8,4.8c0.7,0.7,0.7,1.9,0,2.6l0,0c-0.7,0.7-1.9,0.7-2.6,0L10,12.2c-0.7-0.7-0.7-1.9,0-2.6l0,0
		C10.7,8.9,11.9,8.9,12.6,9.6z"/>
	<path class="st0" d="M5.9,0.5C2.7,0.5,0,3.1,0,6.3s2.6,5.9,5.9,5.9s5.9-2.6,5.9-5.9S9.1,0.5,5.9,0.5z M9.5,9.9c-2,2-5.2,2-7.2,0
		c-2-2-2-5.2,0-7.2s5.2-2,7.2,0C11.5,4.7,11.5,7.9,9.5,9.9z"/>
</g>
</symbol><symbol id="message" viewBox="0 0 22 21">
<path d="M21.0435 0H0.956522C0.430435 0 0 0.4725 0 1.05V14.4637C0 15.0412 0.430435 15.4875 0.956522 15.4875H12.1957V19.95C12.1957 20.3962 12.5065 20.79 12.8652 20.9475C12.9848 21 13.1044 21 13.2239 21C13.5109 21 13.7739 20.8687 13.9652 20.6325L17.9348 15.4875H21.0435C21.5696 15.4875 22 15.0412 22 14.4637V1.05C22 0.4725 21.5696 0 21.0435 0Z" fill="white"/>
</symbol><symbol id="notification" viewBox="0 0 17 22">
<path d="M8.5 22C9.06359 22 9.60409 21.7623 10.0026 21.3391C10.4011 20.916 10.625 20.342 10.625 19.7436H6.375C6.375 20.342 6.59888 20.916 6.9974 21.3391C7.39591 21.7623 7.93641 22 8.5 22ZM14.875 15.2308V9.58974C14.875 6.12615 13.1325 3.22667 10.0938 2.45949V1.69231C10.0938 1.24348 9.92584 0.813035 9.62695 0.495666C9.32807 0.178296 8.92269 0 8.5 0C8.07731 0 7.67193 0.178296 7.37305 0.495666C7.07416 0.813035 6.90625 1.24348 6.90625 1.69231V2.45949C3.85688 3.22667 2.125 6.11487 2.125 9.58974V15.2308L0 17.4872V18.6154H17V17.4872L14.875 15.2308Z" fill="white"/>
</symbol><symbol id="pencil" viewBox="0 0 21 21">
<path d="M3.5437 17.7188L4.75776 12.8297L12.2062 5.38129L15.8812 9.05629L8.43276 16.5047L3.5437 17.7188ZM5.61089 13.2891L4.82339 16.4391L7.97339 15.6516L14.6015 9.02348L12.239 6.66097L5.61089 13.2891Z" fill="white"/>
<path d="M7.64529 16.2094C7.31717 14.9297 6.33279 13.9454 5.0531 13.6172L5.28279 12.6985C6.8906 13.0922 8.13748 14.3391 8.53123 15.9469L7.64529 16.2094Z" fill="white"/>
<path d="M7.54687 14.4047L6.89062 13.7156L13.4203 7.18591L14.0766 7.84216L7.54687 14.4047Z" fill="white"/>
<path d="M4.19995 17.0625L5.6437 16.7016C5.51245 16.1766 5.08589 15.75 4.56089 15.6188L4.19995 17.0625Z" fill="white"/>
<path d="M16.2421 8.69533L12.5671 5.02032L14.0437 3.54376L14.2734 3.57658C16.0453 3.80626 17.4562 5.2172 17.6859 6.98907L17.7187 7.21877L16.2421 8.69533ZM13.9124 5.02032L16.275 7.38283L16.7343 6.92346C16.4718 5.74221 15.5531 4.82345 14.3718 4.56095L13.9124 5.02032Z" fill="white"/>
</symbol><symbol id="star" viewBox="0 0 26 24">
<path d="M12.5245 1.08156C12.6741 0.620903 13.3259 0.620905 13.4755 1.08156L15.6677 7.82827C15.8685 8.4463 16.4444 8.86475 17.0943 8.86475H24.1882C24.6725 8.86475 24.8739 9.48455 24.4821 9.76925L18.743 13.9389C18.2172 14.3209 17.9972 14.998 18.1981 15.616L20.3902 22.3627C20.5399 22.8234 20.0126 23.2064 19.6208 22.9217L13.8817 18.752C13.3559 18.3701 12.6441 18.3701 12.1183 18.752L6.37923 22.9217C5.98737 23.2064 5.46013 22.8234 5.60981 22.3627L7.80195 15.616C8.00276 14.998 7.78277 14.3209 7.25704 13.9389L1.51794 9.76925C1.12609 9.48455 1.32747 8.86475 1.81184 8.86475H8.90575C9.55558 8.86475 10.1315 8.44631 10.3323 7.82827L12.5245 1.08156Z" fill="white" stroke="white"/>
</symbol></svg>