<svg width="33" height="33" viewBox="0 0 33 33" fill="none" xmlns="http://www.w3.org/2000/svg">
<path d="M16.5 0.343994C7.57709 0.343994 0.343994 7.57709 0.343994 16.5C0.343994 25.4229 7.57709 32.656 16.5 32.656C25.4229 32.656 32.656 25.4229 32.656 16.5C32.656 7.57709 25.4229 0.343994 16.5 0.343994ZM21.7979 17.4002C21.149 17.3893 20.5558 17.4082 19.8015 17.3757C19.679 17.3701 17.7145 17.3995 17.7204 17.4352C17.8632 18.3088 17.6581 19.237 17.6704 20.1204C17.6777 20.6352 17.8289 25.293 17.7593 27.0112L13.8662 27.0469C13.8501 25.5839 13.9215 24.0792 13.8582 22.1497C13.8452 21.7531 13.8323 17.5783 13.7861 17.3585C13.7861 17.3585 12.0655 17.3708 11.2612 17.3757C11.2612 17.3757 11.2503 15.835 11.2503 15.3138C11.2503 14.8018 11.2503 14.2904 11.2503 13.7784C11.2503 13.7784 13.2586 13.6671 13.8351 13.617C13.8351 13.617 13.8939 11.6626 13.9737 11.0295C14.0657 10.3064 14.0748 9.57559 14.4994 8.93579C15.2774 7.76469 16.0453 6.73254 17.4758 6.42139C18.0169 6.30309 21.5851 5.60169 21.7174 6.17884L21.6362 9.65364C20.666 9.65364 19.5033 9.55529 18.5132 10.2906C17.9619 10.7008 17.8097 11.0424 17.754 11.7172C17.7208 12.1096 17.7131 13.6975 17.7131 13.6975C18.236 13.7721 19.0098 13.7392 19.5719 13.6975C20.2068 13.6503 21.8368 13.8186 21.8368 13.8186C21.8361 14.8697 21.7941 17.2962 21.7979 17.4002Z" fill="white"/>
</svg>
