<svg width="31" height="31" viewBox="0 0 31 31" fill="none" xmlns="http://www.w3.org/2000/svg">
<path d="M15.5 0.886108C7.21791 0.886108 0.51001 7.60275 0.51001 15.8761C0.51001 24.1495 7.22665 30.8661 15.5 30.8661C23.7734 30.8661 30.49 24.1495 30.49 15.8761C30.49 7.60275 23.7821 0.886108 15.5 0.886108ZM24.2281 20.555C24.2281 22.7939 22.4091 24.613 20.1702 24.613H10.8298C8.59097 24.613 6.77188 22.7939 6.77188 20.555V11.2147C6.77188 8.97581 8.59097 7.15672 10.8298 7.15672H20.1702C22.4091 7.15672 24.2281 8.97581 24.2281 11.2147V20.555Z" fill="white"/>
<path d="M20.1702 8.46863H10.8299C9.31687 8.46863 8.08374 9.70176 8.08374 11.2148V20.5551C8.08374 22.0681 9.31687 23.3012 10.8299 23.3012H20.1702C21.6832 23.3012 22.9163 22.0681 22.9163 20.5551V11.2148C22.9163 9.70176 21.6832 8.46863 20.1702 8.46863ZM15.5 20.7212C12.8326 20.7212 10.6637 18.5523 10.6637 15.8849C10.6637 13.2175 12.8326 11.0486 15.5 11.0486C18.1674 11.0486 20.3364 13.2175 20.3364 15.8849C20.3364 18.5523 18.1674 20.7212 15.5 20.7212ZM20.5025 12.3517C19.6892 12.3517 19.0333 11.6958 19.0333 10.8824C19.0333 10.0691 19.6892 9.41316 20.5025 9.41316C21.3159 9.41316 21.9718 10.0691 21.9718 10.8824C21.9718 11.687 21.3071 12.3517 20.5025 12.3517Z" fill="white"/>
<path d="M15.5 19.4182C17.4514 19.4182 19.0333 17.8363 19.0333 15.8849C19.0333 13.9336 17.4514 12.3517 15.5 12.3517C13.5487 12.3517 11.9668 13.9336 11.9668 15.8849C11.9668 17.8363 13.5487 19.4182 15.5 19.4182Z" fill="white"/>
</svg>
