<svg width="15" height="15" viewBox="0 0 15 15" fill="none" xmlns="http://www.w3.org/2000/svg">
<circle cx="7.5" cy="7.5" r="7" stroke="white"/>
<path d="M8.48145 10.3018L8.37402 10.7412C8.05176 10.8682 7.7946 10.9642 7.60254 11.0293C7.41048 11.0977 7.1875 11.1318 6.93359 11.1318C6.54297 11.1318 6.23861 11.0374 6.02051 10.8486C5.80566 10.6566 5.69824 10.4141 5.69824 10.1211C5.69824 10.0072 5.70638 9.8916 5.72266 9.77441C5.73893 9.65397 5.76497 9.51888 5.80078 9.36914L6.20117 7.94336C6.23698 7.80664 6.26628 7.67806 6.28906 7.55762C6.3151 7.43392 6.32812 7.32161 6.32812 7.2207C6.32812 7.03841 6.29069 6.91146 6.21582 6.83984C6.14095 6.76823 5.99772 6.73242 5.78613 6.73242C5.68197 6.73242 5.57454 6.7487 5.46387 6.78125C5.35645 6.8138 5.26367 6.84473 5.18555 6.87402L5.29297 6.43457C5.55664 6.32715 5.80892 6.236 6.0498 6.16113C6.29069 6.08301 6.51855 6.04395 6.7334 6.04395C7.12077 6.04395 7.41862 6.13835 7.62695 6.32715C7.83854 6.5127 7.94434 6.75521 7.94434 7.05469C7.94434 7.11654 7.9362 7.22559 7.91992 7.38184C7.9069 7.53809 7.88086 7.68132 7.8418 7.81152L7.44141 9.23242C7.40885 9.34635 7.37956 9.47656 7.35352 9.62305C7.32747 9.76953 7.31445 9.88021 7.31445 9.95508C7.31445 10.1439 7.35677 10.2725 7.44141 10.3408C7.52604 10.4092 7.67253 10.4434 7.88086 10.4434C7.97852 10.4434 8.08919 10.4271 8.21289 10.3945C8.33659 10.3587 8.42611 10.3278 8.48145 10.3018ZM8.58398 4.33984C8.58398 4.58724 8.48958 4.79883 8.30078 4.97461C8.11523 5.14714 7.89062 5.2334 7.62695 5.2334C7.36328 5.2334 7.13704 5.14714 6.94824 4.97461C6.75944 4.79883 6.66504 4.58724 6.66504 4.33984C6.66504 4.09245 6.75944 3.88086 6.94824 3.70508C7.13704 3.5293 7.36328 3.44141 7.62695 3.44141C7.89062 3.44141 8.11523 3.5293 8.30078 3.70508C8.48958 3.88086 8.58398 4.09245 8.58398 4.33984Z" fill="white"/>
</svg>
