<?xml version="1.0" encoding="utf-8"?>
<!-- Generator: Adobe Illustrator 22.1.0, SVG Export Plug-In . SVG Version: 6.00 Build 0)  -->
<svg version="1.1" id="Слой_1" xmlns="http://www.w3.org/2000/svg" xmlns:xlink="http://www.w3.org/1999/xlink" x="0px" y="0px"
	 viewBox="0 0 15 15" style="enable-background:new 0 0 15 15;" xml:space="preserve">
<style type="text/css">
	.st0{fill:#FFFFFF;}
	.st1{fill:none;stroke:#FFFFFF;}
</style>
<path class="st0" d="M8.5,10.3l-0.1,0.4C8.1,10.9,7.8,11,7.6,11c-0.2,0.1-0.4,0.1-0.7,0.1c-0.4,0-0.7-0.1-0.9-0.3
	c-0.2-0.2-0.3-0.4-0.3-0.7c0-0.1,0-0.2,0-0.3c0-0.1,0-0.3,0.1-0.4l0.4-1.4c0-0.1,0.1-0.3,0.1-0.4c0-0.1,0-0.2,0-0.3
	c0-0.2,0-0.3-0.1-0.4C6.1,6.8,6,6.7,5.8,6.7c-0.1,0-0.2,0-0.3,0c-0.1,0-0.2,0.1-0.3,0.1l0.1-0.4C5.6,6.3,5.8,6.2,6,6.2
	C6.3,6.1,6.5,6,6.7,6c0.4,0,0.7,0.1,0.9,0.3c0.2,0.2,0.3,0.4,0.3,0.7c0,0.1,0,0.2,0,0.3c0,0.2,0,0.3-0.1,0.4L7.4,9.2
	c0,0.1-0.1,0.2-0.1,0.4c0,0.1,0,0.3,0,0.3c0,0.2,0,0.3,0.1,0.4c0.1,0.1,0.2,0.1,0.4,0.1c0.1,0,0.2,0,0.3,0
	C8.3,10.4,8.4,10.3,8.5,10.3z M8.6,4.3c0,0.2-0.1,0.5-0.3,0.6C8.1,5.1,7.9,5.2,7.6,5.2C7.4,5.2,7.1,5.1,6.9,5
	C6.8,4.8,6.7,4.6,6.7,4.3c0-0.2,0.1-0.5,0.3-0.6c0.2-0.2,0.4-0.3,0.7-0.3c0.3,0,0.5,0.1,0.7,0.3C8.5,3.9,8.6,4.1,8.6,4.3z"/>
<path class="st1" d="M7.5,0.5c-3.9,0-7,3.1-7,7s3.1,7,7,7s7-3.1,7-7S11.4,0.5,7.5,0.5z M7.5,14C3.9,14,1,11.1,1,7.5S3.9,1,7.5,1
	S14,3.9,14,7.5S11.1,14,7.5,14z"/>
</svg>
