<svg width="18" height="18" viewBox="0 0 18 18" fill="none" xmlns="http://www.w3.org/2000/svg">
<path d="M16.875 9.28125H15.1875V7.3125C15.1875 7.16332 15.1282 7.02024 15.0227 6.91475C14.9173 6.80926 14.7742 6.75 14.625 6.75H5.34375V5.34375C5.34375 4.37405 5.72896 3.44407 6.41464 2.75839C7.10032 2.07271 8.0303 1.6875 9 1.6875C9.9697 1.6875 10.8997 2.07271 11.5854 2.75839C12.271 3.44407 12.6562 4.37405 12.6562 5.34375H13.7812C13.7812 4.07568 13.2775 2.85955 12.3809 1.9629C11.4842 1.06624 10.2681 0.5625 9 0.5625C7.73193 0.5625 6.5158 1.06624 5.61915 1.9629C4.72249 2.85955 4.21875 4.07568 4.21875 5.34375V6.75H3.375C3.22582 6.75 3.08274 6.80926 2.97725 6.91475C2.87176 7.02024 2.8125 7.16332 2.8125 7.3125V9.28125H1.125C0.975816 9.28125 0.832742 9.34051 0.727252 9.446C0.621763 9.55149 0.5625 9.69457 0.5625 9.84375V14.3438C0.5625 14.4929 0.621763 14.636 0.727252 14.7415C0.832742 14.847 0.975816 14.9062 1.125 14.9062H2.8125V16.875C2.8125 17.0242 2.87176 17.1673 2.97725 17.2727C3.08274 17.3782 3.22582 17.4375 3.375 17.4375H14.625C14.7742 17.4375 14.9173 17.3782 15.0227 17.2727C15.1282 17.1673 15.1875 17.0242 15.1875 16.875V14.9062H16.875C17.0242 14.9062 17.1673 14.847 17.2727 14.7415C17.3782 14.636 17.4375 14.4929 17.4375 14.3438V9.84375C17.4375 9.69457 17.3782 9.55149 17.2727 9.446C17.1673 9.34051 17.0242 9.28125 16.875 9.28125ZM3.9375 7.875H14.0625V9.28125H3.9375V7.875ZM14.0625 16.3125H3.9375V14.9062H14.0625V16.3125ZM16.3125 13.7812H1.6875V10.4062H16.3125V13.7812Z" fill="white"/>
<path d="M3.9375 11.5312H2.8125V12.6562H3.9375V11.5312Z" fill="white"/>
<path d="M6.1875 11.5312H5.0625V12.6562H6.1875V11.5312Z" fill="white"/>
<path d="M8.4375 11.5312H7.3125V12.6562H8.4375V11.5312Z" fill="white"/>
<path d="M10.6875 11.5312H9.5625V12.6562H10.6875V11.5312Z" fill="white"/>
<path d="M12.9375 11.5312H11.8125V12.6562H12.9375V11.5312Z" fill="white"/>
<path d="M15.1875 11.5312H14.0625V12.6562H15.1875V11.5312Z" fill="white"/>
</svg>
