<?xml version="1.0" encoding="utf-8"?>
<!-- Generator: Adobe Illustrator 22.1.0, SVG Export Plug-In . SVG Version: 6.00 Build 0)  -->
<svg version="1.1" id="Слой_1" xmlns="http://www.w3.org/2000/svg" xmlns:xlink="http://www.w3.org/1999/xlink" x="0px" y="0px"
	 viewBox="0 0 18 18" style="enable-background:new 0 0 18 18;" xml:space="preserve">
<style type="text/css">
	.st0{fill:#FFFFFF;}
</style>
<g>
	<path class="st0" d="M12.6,9.6l4.8,4.8c0.7,0.7,0.7,1.9,0,2.6l0,0c-0.7,0.7-1.9,0.7-2.6,0L10,12.2c-0.7-0.7-0.7-1.9,0-2.6l0,0
		C10.7,8.9,11.9,8.9,12.6,9.6z"/>
	<path class="st0" d="M5.9,0.5C2.7,0.5,0,3.1,0,6.3s2.6,5.9,5.9,5.9s5.9-2.6,5.9-5.9S9.1,0.5,5.9,0.5z M9.5,9.9c-2,2-5.2,2-7.2,0
		c-2-2-2-5.2,0-7.2s5.2-2,7.2,0C11.5,4.7,11.5,7.9,9.5,9.9z"/>
</g>
</svg>
