<svg width="17" height="22" viewBox="0 0 17 22" fill="none" xmlns="http://www.w3.org/2000/svg">
<path d="M8.5 22C9.06359 22 9.60409 21.7623 10.0026 21.3391C10.4011 20.916 10.625 20.342 10.625 19.7436H6.375C6.375 20.342 6.59888 20.916 6.9974 21.3391C7.39591 21.7623 7.93641 22 8.5 22ZM14.875 15.2308V9.58974C14.875 6.12615 13.1325 3.22667 10.0938 2.45949V1.69231C10.0938 1.24348 9.92584 0.813035 9.62695 0.495666C9.32807 0.178296 8.92269 0 8.5 0C8.07731 0 7.67193 0.178296 7.37305 0.495666C7.07416 0.813035 6.90625 1.24348 6.90625 1.69231V2.45949C3.85688 3.22667 2.125 6.11487 2.125 9.58974V15.2308L0 17.4872V18.6154H17V17.4872L14.875 15.2308Z" fill="white"/>
</svg>
